<?xml version="1.0" standalone="no"?>
<!DOCTYPE svg PUBLIC "-//W3C//DTD SVG 20010904//EN"
 "http://www.w3.org/TR/2001/REC-SVG-20010904/DTD/svg10.dtd">
<svg version="1.0" xmlns="http://www.w3.org/2000/svg"
 width="512.000000pt" height="512.000000pt" viewBox="0 0 512.000000 512.000000"
 preserveAspectRatio="xMidYMid meet">
<metadata>
Created by potrace 1.11, written by Peter Selinger 2001-2013
</metadata>
<g transform="translate(0.000000,512.000000) scale(0.100000,-0.100000)"
fill="#000000" stroke="none">
<path d="M860 4494 c-52 -27 -72 -32 -102 -27 -64 10 -120 -48 -112 -115 2
-15 6 -74 9 -132 3 -58 8 -126 10 -152 2 -26 7 -98 10 -160 3 -62 8 -140 10
-173 7 -109 15 -249 20 -330 10 -175 16 -273 20 -330 2 -33 7 -105 10 -160 3
-55 7 -125 10 -155 2 -30 7 -100 10 -155 3 -55 7 -120 10 -145 2 -25 7 -84 10
-131 l6 -86 -46 -13 c-25 -7 -71 -28 -102 -46 -30 -19 -57 -34 -60 -34 -2 0
-24 19 -49 42 l-44 42 35 36 36 36 -71 82 c-39 45 -74 82 -77 82 -4 0 -43 -18
-87 -39 -78 -38 -143 -90 -185 -150 l-20 -28 76 -91 75 -91 45 30 c25 17 48
27 53 23 4 -5 24 -33 44 -63 l36 -53 -25 -42 c-58 -94 -107 -220 -121 -306 -3
-19 -8 -38 -11 -43 -2 -4 -6 -63 -9 -130 -9 -282 78 -571 252 -833 53 -80 182
-209 281 -282 123 -90 340 -192 463 -217 14 -3 48 -11 75 -16 72 -16 267 -21
344 -8 36 5 98 20 136 32 39 12 76 21 82 20 7 0 11 3 8 7 -6 9 165 71 176 64
5 -3 6 2 3 10 -3 9 -1 16 5 16 6 0 11 -4 11 -10 0 -5 4 -10 10 -10 5 0 7 6 4
13 -6 17 53 61 59 44 3 -6 6 -2 6 11 1 25 11 28 29 10 8 -8 12 -9 12 -1 0 6
-5 13 -12 15 -8 3 -5 11 8 24 10 10 29 32 42 48 12 16 25 26 29 23 3 -4 -2
-16 -12 -27 -18 -20 -18 -21 0 -14 12 5 16 4 12 -3 -4 -6 0 -14 9 -17 21 -8
24 -8 24 5 0 5 -4 8 -9 5 -7 -5 -21 15 -21 30 0 7 25 -1 33 -11 5 -6 6 -2 3 9
-5 13 -2 17 8 13 8 -3 22 3 32 14 11 12 25 17 38 13 14 -3 17 -2 8 4 -10 6 -7
13 9 28 21 19 22 19 15 -2 -7 -21 18 -53 31 -40 3 3 1 6 -6 6 -7 0 -10 4 -6
10 3 5 12 7 19 4 7 -3 16 2 19 10 4 9 2 16 -3 16 -6 0 -10 -5 -10 -12 0 -6 -3
-8 -7 -5 -3 4 -12 2 -20 -4 -9 -8 -13 -8 -13 -1 0 27 47 42 95 32 6 -1 16 -2
24 -1 11 1 10 4 -4 15 -18 13 -18 15 -2 30 19 20 21 32 7 41 -5 3 -10 12 -10
18 1 7 10 1 21 -12 18 -22 18 -26 4 -47 -9 -13 -11 -24 -5 -24 5 0 10 4 10 10
0 5 12 21 28 36 22 21 23 24 5 15 -16 -8 -22 -7 -27 4 -3 8 -1 17 4 20 6 4 10
2 10 -4 0 -6 13 -2 30 7 18 11 26 20 20 26 -19 19 -9 29 11 11 l20 -19 -22
-17 c-22 -16 -19 -39 4 -39 7 0 6 4 -3 10 -8 5 -11 12 -7 16 3 4 13 1 22 -6
10 -8 15 -9 15 -1 0 6 -5 11 -11 11 -8 0 -8 4 0 14 10 11 6 20 -16 40 -15 14
-22 26 -15 26 6 0 20 -8 31 -19 18 -18 19 -18 42 0 13 10 19 19 13 19 -5 0
-15 -5 -21 -11 -8 -8 -17 -7 -33 4 -17 12 -18 16 -6 20 8 3 16 1 18 -5 3 -8 9
-8 19 -2 8 5 24 9 36 9 13 0 22 4 22 9 0 5 5 13 13 18 10 8 10 9 -2 5 -8 -2
-14 -10 -13 -16 4 -17 -24 -13 -31 5 -9 22 -8 24 9 18 9 -4 15 0 15 10 0 9 -5
16 -12 16 -6 0 -8 3 -4 7 4 4 15 8 24 8 9 0 16 6 14 14 -2 8 3 11 12 8 8 -3
20 1 26 9 9 10 9 14 1 14 -6 0 -11 4 -11 9 0 5 9 7 20 4 17 -4 18 -8 8 -27
-17 -28 -19 -64 -6 -72 7 -4 8 -2 4 4 -4 7 -4 17 0 24 5 8 10 6 16 -8 8 -18 8
-18 5 1 -2 11 -9 19 -15 18 -17 -4 -14 8 7 34 24 29 35 30 21 2 -7 -11 -9 -23
-7 -26 5 -5 17 24 17 42 0 10 -5 11 -41 14 -10 1 -16 11 -16 31 0 24 3 28 14
18 8 -6 12 -17 9 -25 -3 -7 -1 -13 4 -13 6 0 10 8 10 18 0 26 11 34 27 21 9
-9 13 -8 13 0 0 6 -3 11 -8 11 -16 0 -33 41 -22 54 8 10 4 13 -17 10 -37 -4
-55 7 -43 26 5 8 10 10 10 4 0 -6 16 -11 35 -12 19 -1 35 2 35 6 0 5 -14 8
-32 7 -17 0 -33 5 -35 12 -3 8 8 10 34 8 28 -3 33 -2 18 5 -13 5 4 7 50 5 107
-5 304 -16 365 -20 30 -2 123 -6 205 -10 83 -3 193 -8 245 -10 627 -26 603
-26 634 5 22 22 33 47 35 86 1 6 19 35 42 63 38 48 41 56 40 113 0 33 -3 63
-6 66 -3 3 0 12 7 19 9 11 9 16 -1 22 -10 6 -10 14 -3 28 8 15 8 24 -1 33 -10
10 -8 12 8 6 20 -6 20 -6 1 9 -11 8 -17 18 -13 21 4 4 14 1 24 -7 14 -12 16
-12 8 0 -6 11 -4 13 11 8 18 -7 18 -7 1 7 -11 8 -26 12 -35 8 -15 -5 -15 -4
-3 11 7 9 9 17 4 17 -5 0 -10 46 -11 103 -1 56 -4 119 -6 140 -3 30 -1 37 13
35 9 -2 15 3 14 10 -2 6 2 12 7 12 17 0 11 -25 -11 -49 l-21 -22 21 -6 c22 -6
30 -25 9 -20 -8 1 -13 -9 -13 -28 0 -19 5 -29 13 -28 6 2 12 -5 12 -15 0 -14
2 -15 10 -2 9 14 -7 33 -21 25 -3 -3 -7 7 -6 21 l0 25 29 -30 c29 -30 48 -33
48 -8 0 7 -4 6 -10 -3 -9 -14 -14 -7 -11 13 1 5 -3 6 -9 2 -5 -3 -10 -2 -10 3
0 16 13 22 27 11 8 -8 13 -8 13 -1 0 6 -4 12 -8 14 -12 5 -54 68 -46 68 4 0
20 -15 36 -33 15 -17 25 -24 22 -15 -3 10 -10 18 -15 18 -5 0 -9 6 -9 14 0 8
-7 16 -15 20 -8 3 -15 11 -15 17 0 8 4 8 13 2 8 -6 20 -6 35 2 19 10 20 14 8
18 -9 4 -16 12 -16 19 0 9 3 9 12 0 7 -7 16 -12 22 -12 5 0 1 6 -10 14 -10 8
-16 18 -12 21 4 4 14 0 23 -9 19 -18 39 -11 31 10 -3 8 1 17 9 20 8 4 15 11
15 17 0 5 -9 2 -20 -8 -11 -10 -20 -13 -20 -7 0 7 -5 12 -12 12 -6 0 -4 -7 5
-18 25 -27 21 -36 -7 -15 -13 10 -22 21 -19 25 2 4 -4 5 -14 1 -15 -6 -16 -4
-5 9 7 9 24 14 42 12 17 -2 30 1 30 7 0 6 -4 7 -10 4 -6 -3 -10 -2 -10 3 0 16
13 22 27 11 20 -17 16 -1 -7 23 -32 34 -23 50 9 17 16 -16 35 -29 43 -29 7 0
4 6 -7 12 -29 17 -48 38 -41 45 3 4 17 -4 30 -16 21 -19 24 -20 36 -6 7 8 10
18 7 22 -4 3 -9 -2 -13 -11 -6 -15 -9 -15 -30 5 -13 12 -28 18 -35 14 -7 -5
-10 -3 -7 6 5 15 41 13 46 -2 2 -5 8 -9 14 -9 6 0 4 7 -3 17 -12 15 -12 16 3
11 9 -4 24 0 35 8 10 9 12 13 5 9 -7 -4 -29 -8 -50 -11 -35 -4 -36 -3 -18 11
11 8 29 13 40 9 17 -4 18 -3 6 5 -13 10 -13 12 0 20 8 6 11 13 7 17 -3 4 -15
-4 -26 -17 -11 -13 -22 -21 -26 -17 -4 4 0 14 9 23 20 20 20 25 1 52 -13 19
-13 22 1 27 22 9 24 8 18 -9 -4 -8 -1 -22 6 -30 12 -15 40 -10 40 7 0 6 -6 5
-15 -2 -12 -10 -16 -9 -21 5 -4 9 -1 20 5 25 10 5 9 9 -3 13 -9 4 -16 12 -16
18 0 8 4 8 15 -1 13 -10 19 -10 33 4 24 21 31 20 25 -3 -3 -10 -1 -21 4 -24 9
-6 10 39 1 49 -4 3 -17 -2 -30 -10 -24 -15 -38 -13 -38 6 0 5 4 7 8 4 4 -2 14
0 22 5 13 8 12 11 -2 20 -10 5 -18 15 -18 21 0 6 10 3 23 -6 45 -33 55 -37 63
-24 4 6 3 8 -3 5 -6 -4 -22 2 -34 13 -13 11 -19 19 -13 20 6 0 14 -3 18 -7 3
-4 17 -8 29 -9 12 -2 16 0 9 2 -6 3 -9 11 -5 17 4 7 1 7 -9 -1 -12 -9 -18 -10
-23 -2 -4 6 -13 9 -20 6 -17 -6 -57 23 -49 35 3 6 11 3 18 -7 8 -10 18 -14 25
-10 6 4 18 2 26 -4 8 -7 15 -8 15 -4 0 12 -41 39 -60 39 -8 0 -17 11 -18 24
-2 15 0 21 7 16 6 -3 8 -12 5 -18 -4 -7 -3 -9 1 -4 5 4 19 0 32 -8 13 -9 23
-11 23 -5 0 5 -5 10 -11 10 -5 0 -8 4 -5 9 3 5 -1 14 -9 21 -8 7 -12 17 -9 22
3 5 16 -4 28 -21 21 -29 36 -32 36 -8 0 6 -3 8 -6 4 -7 -6 -34 17 -34 28 0 4
6 5 14 2 8 -3 22 1 33 8 10 8 13 15 7 15 -6 0 -14 -3 -18 -7 -11 -11 -47 -11
-43 0 2 6 13 11 25 12 12 1 25 5 29 8 3 4 -8 5 -26 3 -20 -2 -30 0 -28 8 2 6
14 10 26 8 20 -2 21 -1 7 14 -9 8 -16 21 -16 27 1 16 60 -53 60 -70 0 -6 5
-15 12 -19 6 -4 9 -3 7 2 -3 5 -11 23 -19 39 -8 17 -23 36 -32 43 -10 7 -18
18 -18 24 0 7 7 5 18 -4 26 -23 42 -30 42 -20 0 5 -9 12 -21 15 l-21 6 23 30
c19 26 25 29 32 16 4 -8 12 -15 17 -15 6 0 2 9 -7 19 -17 21 -43 18 -43 -5 0
-19 -15 -18 -31 3 -12 15 -12 16 4 10 16 -6 22 3 18 26 -1 5 9 6 21 2 20 -5
21 -4 5 5 -19 12 -41 4 -32 -11 4 -5 -1 -9 -9 -9 -22 0 -20 17 3 32 14 9 17
16 10 25 -8 9 -5 11 10 10 13 -1 20 -6 17 -14 -3 -7 -1 -13 5 -13 6 0 9 8 7
18 -2 9 -10 16 -17 14 -8 -2 -11 3 -8 12 3 8 -1 20 -9 27 -12 10 -11 15 8 33
17 17 27 20 38 12 12 -8 13 -7 3 3 -6 7 -9 21 -6 30 3 11 0 10 -11 -4 -39 -52
-48 -55 -106 -46 -3 1 2 6 10 11 8 5 22 7 30 5 26 -8 40 8 25 28 -8 12 -15 14
-20 8 -3 -6 -12 -11 -18 -11 -7 1 -1 10 12 21 13 11 21 22 18 25 -3 3 -14 -4
-24 -15 -9 -12 -21 -21 -26 -21 -5 0 -4 7 3 15 9 10 9 15 1 15 -6 0 -11 -4
-11 -10 0 -5 -4 -10 -10 -10 -12 0 -9 22 5 32 6 4 17 5 25 3 8 -2 22 0 30 6
12 8 11 9 -6 4 -28 -7 -38 25 -17 54 16 24 8 28 -13 6 -21 -20 -35 -19 -27 2
6 15 5 16 -9 3 -11 -11 -12 -17 -4 -22 7 -5 5 -8 -6 -8 -29 0 -29 17 -2 39 15
12 22 21 17 21 -5 0 -14 -5 -21 -12 -6 -6 -15 -8 -19 -3 -5 4 -2 10 4 12 7 3
13 9 13 15 0 6 -7 4 -17 -3 -15 -12 -16 -12 -10 4 4 11 3 16 -3 12 -6 -3 -10
-1 -10 4 0 6 -4 11 -10 11 -5 0 0 -16 12 -35 11 -20 18 -39 15 -42 -4 -3 -14
8 -24 26 -22 37 -27 38 -41 6 -6 -14 -16 -25 -22 -25 -6 0 -8 5 -4 12 4 6 3 8
-3 5 -6 -4 -14 0 -17 9 -4 11 -1 14 13 9 16 -5 36 16 31 35 -1 3 9 8 22 12 22
7 22 7 -2 5 -14 -1 -24 -8 -23 -14 1 -6 -5 -17 -14 -25 -15 -11 -16 -11 -10 5
8 23 -5 22 -20 -1 -14 -24 -54 -21 -64 4 -4 11 -6 1 -4 -26 2 -36 -1 -48 -19
-63 -11 -10 -15 -16 -7 -15 7 2 16 -3 18 -10 4 -11 1 -12 -15 -3 -22 12 -20
41 2 41 6 0 4 5 -4 10 -12 8 -13 13 -2 30 17 28 15 35 -5 19 -14 -12 -15 -12
-9 0 5 7 7 47 6 90 -1 42 -3 285 -4 541 -1 507 0 497 -60 538 -27 18 -50 23
-137 27 -400 18 -477 22 -594 30 -44 3 -110 8 -147 10 -184 13 -259 19 -388
30 -25 2 -81 7 -125 11 -44 3 -88 8 -98 10 -11 2 -58 6 -105 9 -48 4 -98 8
-112 10 -14 2 -52 7 -85 10 -33 3 -76 8 -95 10 -19 3 -60 7 -90 10 -30 3 -71
7 -90 10 -35 5 -51 7 -160 20 -30 3 -66 8 -80 10 -14 2 -43 6 -65 9 -188 25
-468 69 -605 96 -52 10 -106 21 -120 23 -14 3 -65 15 -115 27 -49 12 -101 24
-115 26 -14 3 -47 12 -74 20 -65 19 -70 18 -146 -22z m3711 -1573 c8 -34 5
-52 -8 -47 -8 3 -11 2 -8 -3 3 -5 1 -12 -4 -15 -17 -11 -20 22 -3 36 10 7 15
12 13 11 -2 -2 -10 2 -18 9 -11 9 -12 7 -7 -7 5 -11 3 -16 -2 -12 -6 3 -10 -7
-9 -23 0 -15 3 -26 6 -24 4 2 9 -3 12 -10 4 -10 0 -14 -13 -13 -21 1 -34 35
-21 51 5 6 7 20 6 32 -1 16 4 20 27 20 15 0 29 -2 29 -5z m79 -1 c0 -5 12 -21
27 -34 23 -21 25 -28 14 -38 -12 -11 -13 -10 -8 4 3 10 2 20 -2 22 -5 3 -8 -6
-7 -21 0 -14 -4 -28 -10 -30 -8 -3 -11 8 -10 31 2 24 -1 33 -10 29 -16 -6 -26
11 -18 31 7 17 24 22 24 6z m-15 -47 c15 -12 16 -14 3 -10 -12 4 -15 2 -11 -9
3 -7 10 -14 17 -14 6 0 4 -5 -4 -10 -18 -12 -30 -13 -29 -2 4 22 -3 34 -15 29
-10 -4 -14 0 -13 14 2 23 25 24 52 2z m121 -13 c-1 -20 -21 -40 -41 -39 -5 0
1 6 15 14 34 19 17 19 -20 0 -30 -16 -41 -29 -17 -19 8 3 14 -2 14 -11 0 -9
-6 -14 -14 -11 -8 3 -12 2 -9 -3 3 -5 -1 -12 -10 -15 -12 -5 -14 -1 -8 17 9
30 23 47 59 69 17 10 31 18 31 18 1 0 1 -9 0 -20z m-181 -30 c-5 -8 -11 -8
-17 -2 -6 6 -7 16 -3 22 5 8 11 8 17 2 6 -6 7 -16 3 -22z m20 -6 c-8 -9 -15
-20 -15 -26 0 -6 -6 -6 -15 2 -9 7 -15 8 -15 2 0 -5 6 -12 13 -14 17 -7 38 2
32 12 -3 5 -1 11 5 15 5 3 10 2 10 -4 0 -5 3 -16 6 -24 4 -10 -1 -15 -13 -14
-10 1 -18 -5 -18 -13 0 -8 -6 -20 -14 -26 -8 -6 -11 -16 -7 -22 4 -7 3 -12 -2
-12 -19 0 -21 15 -6 38 20 30 4 45 -33 31 -30 -11 -36 -11 -29 -1 2 4 0 14 -6
22 -8 12 -9 12 -4 -2 3 -10 1 -18 -4 -18 -5 0 -8 14 -8 30 1 24 5 30 17 24 36
-15 82 -12 94 6 6 10 15 16 19 14 5 -3 1 -12 -7 -20z m61 -15 c10 -17 -13 -36
-27 -22 -12 12 -4 33 11 33 5 0 12 -5 16 -11z m89 -31 c24 -11 34 -27 18 -29
-46 -7 -71 -5 -69 5 2 6 1 8 -1 4 -6 -11 -23 -10 -23 0 0 7 27 25 47 31 1 1
14 -4 28 -11z m-190 -28 c-3 -5 -21 -7 -40 -6 -20 2 -33 1 -29 -3 3 -3 16 -6
27 -6 14 0 21 -5 19 -14 -3 -15 15 -31 36 -31 8 0 11 7 8 18 -5 13 1 22 20 31
20 9 25 9 22 -1 -3 -7 -10 -13 -15 -13 -6 0 -15 -4 -20 -9 -4 -5 -3 -6 4 -2 6
3 13 3 16 -1 6 -11 -25 -38 -43 -38 -26 0 -48 28 -36 45 9 13 9 13 -5 2 -21
-16 -44 -7 -46 19 -1 14 3 19 13 15 7 -3 24 -2 36 3 25 9 42 5 33 -9z m55 10
c0 -5 -4 -10 -10 -10 -5 0 -10 5 -10 10 0 6 5 10 10 10 6 0 10 -4 10 -10z m45
0 c-3 -5 -13 -10 -21 -10 -8 0 -14 5 -14 10 0 6 9 10 21 10 11 0 17 -4 14 -10z
m155 0 c0 -5 -4 -10 -10 -10 -5 0 -10 5 -10 10 0 6 5 10 10 10 6 0 10 -4 10
-10z m-97 -25 c16 -1 32 -8 37 -15 4 -7 12 -10 18 -6 13 8 42 -3 42 -15 0 -5
-6 -9 -14 -9 -8 0 -17 -7 -20 -16 -4 -9 -13 -14 -21 -10 -8 3 -15 2 -15 -3 0
-12 -33 -9 -42 4 -12 16 -9 27 5 18 17 -11 31 -10 39 2 5 6 8 5 8 -3 0 -7 5
-10 11 -6 18 11 -12 24 -32 14 -16 -9 -29 -4 -29 11 0 4 6 6 14 5 19 -1 22 17
4 22 -9 2 -8 0 2 -7 12 -8 11 -10 -8 -8 -12 0 -22 5 -22 10 0 5 -9 -1 -20 -14
-10 -13 -19 -19 -20 -13 0 5 5 15 11 21 8 8 8 13 0 18 -6 3 -11 3 -10 -2 4
-20 -2 -27 -12 -13 -9 13 -10 12 -5 -2 4 -12 1 -15 -11 -11 -14 5 -13 9 7 25
14 11 30 16 39 12 9 -3 29 -7 44 -9z m-209 -36 c28 -13 38 -32 29 -55 -5 -13
-7 -13 -14 -2 -7 10 -9 11 -9 0 0 -7 -4 -11 -9 -8 -5 4 -8 17 -6 31 1 14 -1
28 -5 30 -5 3 -7 -6 -5 -20 1 -14 -1 -25 -6 -25 -4 0 -7 14 -7 30 1 34 -1 33
32 19z m178 -11 c-8 -8 -7 -14 4 -25 8 -8 14 -19 14 -25 0 -6 -9 1 -21 16 -17
22 -19 29 -9 42 7 8 15 12 18 9 3 -3 1 -10 -6 -17z m-43 3 c20 -13 9 -34 -19
-38 -19 -3 -22 -1 -12 9 6 6 12 16 12 21 0 5 -9 -1 -20 -14 -10 -13 -19 -19
-20 -12 0 12 27 43 38 43 4 0 13 -4 21 -9z m181 -16 c-7 -8 -17 -12 -24 -8 -6
4 -5 -1 3 -10 12 -15 11 -20 -4 -37 -9 -10 -14 -24 -10 -29 3 -6 2 -11 -3 -11
-18 0 -20 13 -5 36 9 14 13 27 9 31 -3 3 -6 1 -6 -4 0 -6 -7 -10 -15 -9 -21 3
-31 16 -12 16 10 0 26 9 37 20 24 24 49 28 30 5z m-250 -14 c0 -5 -6 -12 -12
-15 -7 -3 -1 -3 15 -1 15 2 27 -1 27 -7 0 -6 6 -6 15 2 8 7 15 9 15 5 0 -4 7
-1 16 6 14 11 18 10 30 -6 17 -23 18 -35 3 -35 -5 0 -7 4 -4 10 3 6 -1 7 -10
4 -11 -5 -14 -2 -9 12 6 17 5 17 -9 -1 -10 -12 -16 -15 -17 -7 0 8 -5 10 -12
5 -7 -4 -26 -8 -43 -8 -21 0 -33 -7 -42 -25 -7 -14 -17 -26 -23 -26 -5 -1 -15
-2 -21 -3 -6 0 -9 -8 -5 -16 3 -8 1 -15 -4 -15 -5 0 -9 16 -8 35 1 19 5 35 10
35 5 0 6 -4 3 -10 -3 -5 -1 -10 4 -10 6 0 11 6 11 13 0 8 4 7 11 -3 8 -12 9
-10 4 8 -4 12 -3 22 2 21 17 -3 33 1 32 9 -3 18 2 32 11 32 6 0 10 -4 10 -9z
m160 -20 c0 -5 -6 -12 -12 -14 -7 -3 2 -4 20 -2 34 4 40 -3 20 -23 -19 -19
-32 -14 -17 6 12 15 12 16 -2 5 -9 -7 -19 -10 -22 -6 -4 3 -7 1 -7 -5 0 -7 6
-12 13 -12 8 0 7 -3 -3 -10 -22 -13 -33 13 -18 44 11 25 28 35 28 17z m-232
-19 c2 -7 -2 -10 -12 -6 -9 3 -16 11 -16 16 0 13 23 5 28 -10z m152 -22 c-1
-16 -23 -50 -34 -50 -3 0 -5 6 -3 13 1 6 -6 11 -15 11 -9 -1 -19 5 -22 12 -6
17 -5 17 28 4 17 -6 27 -6 32 2 4 7 3 8 -4 4 -7 -4 -12 -3 -12 2 0 10 -51 9
-68 -2 -11 -7 -17 5 -7 15 2 3 27 5 55 5 39 0 50 -4 50 -16z m50 -42 c0 -6 -9
1 -20 15 -11 14 -20 29 -20 34 1 11 40 -37 40 -49z m-126 16 c7 -18 0 -34 -16
-34 -7 0 -6 5 1 14 8 10 9 16 1 21 -6 4 -10 3 -9 -2 3 -20 -2 -27 -11 -13 -8
13 -10 12 -10 -2 0 -10 -5 -18 -10 -18 -14 0 5 36 22 43 21 9 26 8 32 -9z
m236 -35 c0 -5 -4 -8 -9 -6 -5 1 -16 -7 -24 -18 -9 -11 -18 -17 -22 -13 -4 3
3 16 14 27 11 11 17 23 12 25 -4 3 -18 -13 -30 -35 -13 -22 -26 -38 -29 -34
-3 3 0 11 6 17 17 17 15 31 -3 25 -35 -14 -27 34 8 50 17 8 28 6 50 -9 15 -11
27 -24 27 -29z m-130 21 c12 -23 -4 -28 -17 -5 -7 12 -10 11 -21 -5 -10 -16
-10 -20 0 -20 9 0 8 -3 -2 -10 -12 -8 -12 -10 -1 -10 20 0 5 -13 -21 -17 -18
-3 -19 -1 -8 12 10 13 11 18 1 28 -10 9 -15 9 -24 -3 -14 -18 -47 -22 -47 -6
0 6 -5 4 -10 -4 -7 -12 -12 -12 -21 -3 -9 9 -16 10 -26 2 -8 -7 -13 -8 -13 -1
0 15 21 20 67 16 35 -3 43 0 48 16 7 21 27 28 23 9 -5 -21 21 -20 32 0 14 26
26 27 40 1z m-170 0 c0 -5 -5 -10 -11 -10 -5 0 -7 5 -4 10 3 6 8 10 11 10 2 0
4 -4 4 -10z m216 -42 c5 4 2 -1 -5 -10 -10 -14 -11 -21 -2 -32 9 -11 8 -15 -5
-20 -12 -4 -15 -2 -11 9 4 8 -3 21 -14 29 -15 10 -17 15 -7 20 7 3 4 4 -7 1
-15 -4 -21 0 -22 14 -2 20 -1 20 32 1 18 -10 37 -16 41 -12z m-116 3 c0 -6 -4
-12 -10 -16 -5 -3 -7 -12 -3 -21 4 -11 9 -12 19 -3 8 6 14 8 14 4 0 -4 6 -2
14 4 11 9 20 10 36 1 20 -11 19 -30 -1 -30 -6 0 -8 4 -4 9 3 5 1 12 -4 16 -5
3 -14 -3 -20 -12 -9 -15 -12 -15 -20 -4 -5 8 -11 9 -15 3 -7 -11 -51 -10 -63
1 -6 7 12 11 30 8 5 -1 6 3 3 8 -8 12 3 41 15 41 5 0 9 -4 9 -9z m-80 -16 c5
3 10 0 10 -7 0 -10 3 -9 10 2 5 8 12 11 17 7 9 -9 -17 -28 -29 -21 -4 3 -8 -1
-8 -8 0 -9 -3 -9 -10 2 -8 12 -10 12 -10 1 0 -20 -13 -5 -17 21 -3 17 -1 19
11 8 9 -6 20 -9 26 -5z m-45 -14 c-3 -5 -1 -12 5 -16 5 -3 10 -11 10 -16 0 -6
-5 -7 -10 -4 -13 8 -9 -17 5 -27 14 -11 26 2 20 21 -4 14 0 18 17 16 13 -1 23
-3 23 -5 0 -1 29 -3 65 -5 36 -2 75 -6 88 -9 12 -2 23 -1 23 5 1 5 2 15 3 22
0 6 12 14 25 15 15 2 21 0 16 -7 -3 -6 -10 -9 -15 -6 -4 3 -7 -6 -6 -20 2 -14
-3 -33 -10 -42 -10 -15 -10 -21 3 -35 9 -10 11 -18 5 -18 -6 0 -15 7 -20 16
-6 11 -14 14 -23 8 -16 -11 -21 -44 -7 -44 6 0 4 -7 -3 -16 -11 -13 -10 -17 4
-25 9 -5 14 -16 11 -23 -3 -8 -1 -17 5 -21 6 -3 11 -12 11 -18 0 -8 -3 -8 -9
1 -6 10 -12 4 -21 -20 -8 -18 -20 -37 -28 -41 -11 -7 -10 -13 3 -34 15 -23 15
-26 0 -43 -9 -10 -14 -24 -10 -29 3 -6 2 -11 -3 -11 -4 0 -18 -18 -31 -40 -12
-22 -27 -40 -32 -40 -11 0 -5 14 20 45 10 13 11 16 1 8 -20 -18 -35 -16 -20 2
7 9 20 13 29 10 13 -4 12 -2 -2 9 -16 13 -16 15 3 37 10 13 19 19 20 13 0 -5
-5 -15 -11 -21 -8 -8 -7 -13 3 -18 7 -5 10 -5 6 0 -4 4 2 22 14 39 19 26 19
28 3 16 -16 -13 -18 -13 -13 0 3 8 1 23 -4 33 -6 12 -5 19 7 23 8 3 15 12 15
19 0 7 3 15 8 18 4 2 1 2 -5 1 -15 -4 -16 5 -3 26 9 13 10 13 10 0 1 -12 3
-11 11 3 5 9 7 23 2 30 -4 6 -8 17 -8 22 0 6 -8 9 -18 7 -11 -2 -15 2 -11 12
7 19 -16 32 -26 15 -5 -7 -6 -17 -3 -22 3 -5 0 -7 -8 -5 -8 3 -12 12 -11 19 8
31 6 34 -17 31 -19 -2 -22 0 -12 12 6 8 10 19 9 26 -2 7 2 14 9 17 6 2 10 -4
9 -14 -4 -24 33 -51 44 -33 11 18 0 52 -16 46 -7 -3 -16 -1 -20 5 -3 6 -12 8
-19 5 -7 -2 -16 2 -19 10 -5 12 -1 14 15 9 35 -11 67 -13 81 -4 14 10 13 10
-52 13 -25 1 -54 -2 -64 -7 -15 -8 -18 -6 -13 7 12 31 -2 16 -19 -21 -10 -20
-20 -31 -22 -25 -5 17 -19 15 -19 -3 0 -8 5 -11 10 -8 5 3 8 0 5 -7 -2 -8 -9
-15 -14 -17 -6 -2 -10 24 -11 67 0 38 4 70 9 70 5 0 7 -4 3 -9z m86 -68 c0 -5
2 -17 4 -28 2 -10 -1 -25 -6 -31 -11 -14 2 -26 23 -21 7 2 10 2 5 0 -4 -3 -5
-9 -2 -13 3 -5 0 -12 -6 -16 -8 -5 -9 -3 -4 5 6 10 3 11 -14 2 -14 -8 -21 -8
-21 -1 0 5 6 10 13 11 10 0 10 2 0 6 -15 6 -17 33 -3 33 17 0 11 15 -12 29
-18 10 -20 11 -10 0 18 -20 15 -33 -5 -18 -15 11 -16 11 -5 -1 17 -19 15 -35
-2 -21 -11 10 -16 8 -21 -9 -3 -11 -11 -18 -16 -15 -5 3 -6 -1 -3 -9 3 -9 2
-16 -3 -16 -17 0 -10 32 13 57 12 14 29 34 38 44 16 19 35 25 37 12z m73 -39
c8 -21 -12 -26 -23 -6 -7 14 -6 19 4 19 8 0 16 -6 19 -13z m-109 -42 c6 -4 10
-14 10 -22 0 -9 10 -14 28 -15 19 0 31 -8 41 -27 13 -24 13 -26 -5 -25 -14 1
-18 7 -13 22 4 14 3 16 -4 7 -7 -11 -11 -10 -16 4 -3 9 -9 14 -13 11 -12 -13
-45 14 -38 31 5 13 3 14 -6 5 -16 -16 9 -51 34 -47 10 1 17 -2 15 -8 -2 -6
-16 -12 -30 -14 -19 -2 -25 2 -24 14 1 12 -6 16 -22 14 l-24 -4 21 21 c12 12
21 26 21 31 0 12 11 13 25 2z m115 -22 c0 -5 -5 -10 -11 -10 -5 0 -7 5 -4 10
3 6 8 10 11 10 2 0 4 -4 4 -10z m100 0 c0 -5 -4 -10 -10 -10 -5 0 -10 5 -10
10 0 6 5 10 10 10 6 0 10 -4 10 -10z m-76 -32 c-2 -4 0 -9 6 -13 12 -7 14 -26
3 -24 -24 4 -31 -4 -28 -30 2 -17 -2 -34 -10 -41 -10 -9 -12 -17 -5 -30 7 -13
4 -24 -10 -40 -11 -13 -20 -27 -20 -32 0 -4 -5 -8 -11 -8 -5 0 -8 4 -5 9 3 5
-1 11 -9 15 -17 6 -27 -7 -20 -26 3 -8 -1 -20 -9 -27 -13 -11 -15 -9 -11 18 2
17 7 36 12 43 4 7 8 17 8 22 0 5 6 11 13 14 7 2 10 -2 6 -11 -8 -22 16 -32 34
-13 12 12 13 16 3 16 -11 0 -11 3 0 18 13 15 12 16 -4 3 -9 -8 -20 -11 -23 -8
-3 3 6 13 20 22 16 11 23 22 19 32 -5 12 -3 14 7 8 9 -5 11 -4 6 4 -4 6 -11 9
-16 6 -4 -3 -10 2 -13 10 -4 8 -15 12 -28 10 -13 -3 -28 0 -36 6 -9 8 -17 8
-27 0 -10 -8 -16 -9 -21 -1 -3 5 2 11 12 12 33 2 38 3 49 11 7 4 14 1 17 -7 8
-19 54 -13 75 10 16 17 16 17 -1 4 -13 -9 -21 -10 -29 -2 -15 15 -2 30 26 28
13 0 22 -4 20 -8z m-173 -26 c-13 -25 8 -49 27 -30 9 9 16 7 32 -7 24 -22 25
-32 5 -32 -9 0 -14 6 -11 14 3 8 1 11 -4 8 -6 -3 -10 0 -10 7 -1 7 -7 2 -14
-11 l-14 -24 -6 21 c-4 12 -12 22 -18 22 -6 0 -6 -6 2 -15 10 -12 10 -18 -1
-32 -13 -17 -13 -17 5 -3 18 14 19 14 12 -5 -14 -33 -15 -65 -3 -65 7 0 6 -5
-3 -10 -12 -8 -10 -10 10 -8 22 3 24 -1 26 -37 0 -22 -1 -46 -4 -52 -6 -18
-27 -16 -43 4 -8 9 -9 14 -4 11 6 -4 11 2 11 12 0 16 -3 17 -16 7 -13 -10 -13
-10 -2 5 7 9 9 19 4 22 -10 6 -9 36 2 54 4 7 2 12 -5 12 -8 0 -9 3 0 13 6 8 8
17 4 21 -11 11 -10 96 2 96 5 0 3 5 -5 11 -13 9 -12 10 3 5 9 -3 17 0 17 6 0
6 3 9 6 6 3 -4 1 -15 -5 -26z m117 -57 c8 -18 5 -25 -26 -46 -19 -13 -39 -25
-44 -25 -4 -1 -13 -2 -19 -3 -5 0 -7 -6 -3 -12 5 -8 9 -8 14 1 5 8 10 9 14 2
3 -6 2 -13 -3 -16 -13 -8 -38 3 -45 20 -8 20 25 88 35 72 4 -6 17 -13 29 -15
19 -3 21 0 16 20 -7 31 18 32 32 2z m-8 -85 c0 -5 -4 -10 -10 -10 -5 0 -10 5
-10 10 0 6 5 10 10 10 6 0 10 -4 10 -10z m-13 -78 c-10 -13 -16 -44 -18 -89
-1 -14 -6 -20 -15 -16 -8 3 -12 9 -9 13 3 4 -3 14 -13 21 -15 13 -16 12 -3 -3
8 -11 9 -18 3 -18 -6 0 -14 5 -18 11 -4 8 -9 7 -15 -2 -7 -11 -9 -11 -9 -1 0
7 -5 10 -12 6 -7 -4 -8 -3 -4 4 4 7 2 12 -4 12 -6 0 -8 5 -4 12 5 8 10 7 18
-5 9 -11 17 -12 29 -6 9 6 22 7 27 4 15 -9 30 4 24 20 -4 8 -11 12 -16 9 -6
-4 -5 -10 3 -15 10 -6 10 -9 2 -9 -22 0 -23 17 -3 40 13 15 18 31 14 43 -6 18
-5 18 13 0 14 -13 17 -22 10 -31z m38 -82 c0 -7 -6 -15 -13 -18 -6 -2 -10 2
-9 10 2 7 2 10 0 5 -3 -4 -10 -4 -16 0 -7 3 -3 -4 8 -17 17 -19 17 -22 3 -17
-9 3 -22 -1 -28 -9 -14 -15 -35 -20 -25 -5 3 5 0 13 -6 17 -8 4 -9 3 -5 -4 4
-7 2 -12 -3 -12 -6 0 -11 5 -11 10 0 6 -5 10 -11 10 -5 0 -8 -4 -4 -9 3 -6 -2
-14 -11 -19 -11 -6 -13 -11 -5 -16 6 -4 11 -3 11 1 0 5 9 9 19 10 13 1 18 -3
14 -13 -3 -7 -9 -11 -14 -8 -5 3 -6 -3 -2 -13 5 -15 3 -16 -8 -5 -7 6 -18 12
-23 12 -6 0 -4 -5 4 -10 8 -5 10 -10 4 -10 -6 0 -11 -7 -11 -16 0 -15 1 -15
12 -1 9 12 14 14 23 5 17 -17 15 -26 -5 -24 -11 0 -17 -5 -15 -14 3 -12 1 -12
-9 -3 -14 14 -21 125 -7 117 4 -3 8 0 8 5 0 6 -4 11 -10 11 -5 0 -10 4 -10 10
0 12 48 7 77 -8 24 -13 37 -3 27 21 -3 10 1 17 13 20 26 7 38 2 38 -13z m-61
-76 c12 -5 13 -10 5 -25 -5 -11 -7 -24 -4 -29 3 -6 3 -15 -1 -21 -4 -8 -13 -4
-24 11 -14 19 -16 29 -7 47 12 26 10 25 31 17z m-42 -131 c1 -4 8 -13 16 -19
8 -6 12 -16 8 -22 -10 -17 -26 -15 -20 3 4 8 -1 17 -9 21 -9 3 -13 12 -10 20
5 15 14 13 15 -3z m-2022 -674 c0 -4 8 -6 18 -4 9 1 27 -2 40 -6 15 -6 22 -5
22 4 0 8 3 7 9 -2 5 -8 7 -20 4 -28 -4 -11 -8 -10 -18 4 -8 10 -17 15 -21 10
-4 -4 -2 -7 4 -7 7 0 12 -5 12 -11 0 -5 -5 -7 -10 -4 -6 4 -22 0 -35 -9 -22
-15 -24 -14 -22 4 1 11 8 19 16 17 7 -1 16 5 18 13 4 13 3 13 -6 0 -6 -8 -11
-10 -11 -4 0 11 -13 14 -57 15 -34 1 -27 15 7 15 17 0 30 -3 30 -7z m-14 -17
c6 -4 10 -16 8 -26 -4 -31 5 -38 29 -21 25 18 37 19 37 4 0 -5 -5 -7 -12 -3
-7 4 -8 3 -4 -5 4 -6 11 -9 16 -6 4 3 10 -1 13 -8 4 -10 -4 -14 -26 -14 -18 0
-26 2 -19 5 14 4 17 22 3 22 -5 0 -11 -7 -15 -15 -3 -10 5 -20 24 -30 17 -9
30 -20 30 -25 0 -14 -23 -8 -36 9 -9 11 -13 10 -27 -4 -9 -9 -17 -12 -17 -6 0
5 4 12 10 16 6 3 5 15 -2 31 -7 15 -14 20 -18 13 -4 -6 -10 -10 -14 -10 -25 4
-27 -2 -6 -14 14 -8 21 -14 16 -15 -4 0 -1 -11 8 -25 18 -27 17 -28 -8 -19 -9
3 -13 10 -10 15 3 5 -2 12 -10 15 -9 3 -14 10 -11 14 3 5 1 11 -5 15 -6 4 -7
12 -3 18 4 6 6 24 5 40 -1 16 2 26 7 23 5 -3 8 -17 7 -30 -2 -17 1 -23 10 -19
17 6 18 23 3 23 -8 0 -7 6 2 17 10 11 10 14 2 9 -7 -4 -13 -2 -13 3 0 13 10
14 26 3z m174 -4 c0 -3 17 -4 37 -3 36 4 58 -9 47 -27 -10 -15 -23 -8 -18 10
5 14 4 15 -5 2 -9 -13 -11 -13 -11 0 0 13 -1 13 -10 0 -8 -12 -10 -12 -10 -1
0 11 -3 11 -15 1 -9 -8 -15 -8 -15 -2 0 6 -10 10 -21 9 -24 -2 -54 -40 -45
-56 4 -5 1 -13 -5 -16 -5 -4 -8 -14 -4 -23 5 -12 1 -12 -17 3 -13 11 -25 21
-27 23 -3 1 6 1 20 0 24 -3 26 2 13 36 -5 13 -4 17 4 12 11 -7 36 27 26 36 -2
3 9 5 26 4 16 -1 30 -4 30 -8z m160 -15 c0 -11 -25 -53 -32 -53 -4 0 -8 2 -8
4 0 2 -3 13 -7 23 -6 15 -4 16 8 6 13 -10 16 -10 16 1 0 8 -8 13 -18 11 -10
-2 -21 0 -24 5 -3 5 10 8 30 7 19 -1 35 -3 35 -4z m-194 -27 c-2 -14 1 -27 7
-30 7 -2 8 -5 2 -5 -25 -2 -37 16 -26 38 15 28 22 27 17 -3z m64 9 c17 0 26
-6 28 -20 3 -17 1 -18 -8 -5 -9 12 -10 11 -6 -6 5 -14 2 -21 -9 -21 -10 0 -13
6 -10 18 3 9 1 20 -4 24 -7 4 -8 -1 -4 -12 6 -16 4 -16 -18 2 l-24 20 18 -22
c12 -14 15 -23 7 -28 -5 -3 -7 -11 -4 -17 4 -7 2 -8 -4 -4 -7 4 -12 1 -12 -6
-1 -8 -7 -5 -17 7 -13 16 -15 17 -10 3 4 -10 2 -18 -4 -18 -6 0 -7 -4 -4 -10
3 -5 1 -18 -4 -28 -7 -13 -6 -23 2 -32 10 -10 8 -10 -10 -1 -18 9 -24 8 -31
-5 -6 -11 -12 -13 -16 -6 -4 6 5 19 19 28 19 12 23 20 15 29 -8 9 -6 14 5 18
8 4 12 13 9 21 -7 19 13 31 30 17 17 -14 29 8 16 29 -11 18 -1 42 14 33 6 -4
22 -7 36 -8z m110 -50 c11 -3 20 -11 20 -17 0 -6 6 -6 15 2 9 8 15 9 15 2 0
-20 -21 -24 -38 -9 -22 20 -33 22 -44 5 -6 -9 -7 -6 -3 10 4 13 2 22 -4 22 -6
0 -10 -3 -10 -7 3 -20 -2 -34 -11 -28 -5 3 -7 13 -4 23 5 14 4 14 -4 3 -6 -8
-9 -27 -7 -43 3 -19 0 -26 -7 -22 -6 4 -9 3 -6 -2 3 -5 -3 -17 -14 -26 -14
-14 -18 -15 -18 -4 0 8 5 18 10 21 6 4 8 11 5 16 -4 5 -1 9 6 9 7 0 10 3 6 6
-6 7 16 57 36 82 8 11 13 8 24 -12 7 -13 22 -27 33 -31z m-307 0 c4 -8 3 -16
-1 -19 -4 -3 -9 4 -9 15 -2 23 3 25 10 4z m207 -17 c0 -4 -4 -8 -9 -8 -6 0 -8
-9 -6 -20 2 -12 -2 -23 -10 -26 -11 -5 -12 -11 -5 -25 6 -10 17 -16 25 -13 8
4 12 10 9 15 -3 5 2 9 10 9 9 0 15 -3 15 -7 -4 -23 4 -30 31 -28 39 2 57 19
42 38 -8 9 -8 17 -1 24 8 8 7 13 -1 18 -18 11 -36 -11 -22 -28 7 -8 9 -17 5
-20 -10 -11 -20 -8 -20 6 0 6 -3 23 -8 37 -4 14 -4 22 0 18 4 -4 16 -3 26 3
15 8 21 6 26 -6 4 -11 13 -15 29 -11 26 7 42 -10 26 -26 -8 -8 -16 -7 -27 2
-8 7 -16 11 -16 9 -3 -8 -9 -64 -10 -86 -1 -14 -6 -20 -15 -16 -8 3 -11 10 -7
16 3 6 1 7 -6 3 -6 -4 -18 -2 -26 4 -12 10 -15 10 -15 -1 0 -8 -6 -5 -14 7
-12 15 -17 17 -27 7 -10 -10 -10 -16 -2 -24 13 -13 -4 -62 -19 -53 -5 3 -15 1
-22 -5 -11 -9 -13 -6 -13 15 0 18 3 22 10 15 30 -30 40 4 16 55 -10 21 -18 33
-19 26 0 -7 -5 -10 -12 -6 -6 4 -8 3 -4 -4 3 -6 3 -13 -2 -16 -4 -2 -14 4 -21
16 -8 13 -8 18 -1 13 7 -4 11 -1 9 6 -3 27 1 52 8 45 12 -11 12 -37 1 -30 -7
4 -8 2 -4 -4 5 -9 13 -9 29 -1 31 16 36 23 11 15 -24 -7 -30 19 -7 28 8 3 12
10 8 15 -3 6 4 9 15 8 11 -1 20 -5 20 -9z m-150 -35 c0 4 6 2 14 -5 11 -10 9
-16 -10 -31 -14 -11 -21 -24 -17 -33 5 -14 3 -14 -15 -3 l-22 14 22 11 c11 6
17 13 12 16 -5 3 -2 3 6 1 11 -3 12 -1 4 7 -9 9 -17 9 -33 0 -12 -6 -27 -8
-33 -4 -7 5 -9 2 -4 -7 4 -8 0 -5 -8 5 -9 11 -17 16 -17 10 -6 -46 -5 -75 2
-80 5 -3 9 -10 9 -16 0 -6 -7 -5 -17 3 -15 11 -14 10 1 -9 11 -12 15 -22 10
-22 -19 0 -31 16 -27 35 2 11 5 37 5 58 1 20 6 37 12 37 6 0 5 4 -2 9 -11 7
-10 9 3 14 9 4 13 3 10 -3 -9 -15 35 -34 48 -21 6 6 8 11 4 11 -4 0 -2 6 5 14
11 11 15 11 25 -3 7 -9 13 -12 13 -8z m203 -22 c4 -29 14 -36 32 -21 8 7 15 8
15 2 0 -14 -27 -23 -47 -14 -13 5 -18 19 -19 46 -2 40 12 31 19 -13z m47 25
c0 -3 -4 -8 -10 -11 -5 -3 -10 -1 -10 4 0 6 5 11 10 11 6 0 10 -2 10 -4z
m-310 -46 c23 15 36 12 16 -3 -17 -13 -17 -14 8 -30 24 -16 27 -16 45 2 19 19
20 19 18 0 -1 -18 -10 -23 -30 -20 -5 1 -6 -3 -2 -9 4 -6 -3 -8 -17 -6 -13 3
-25 5 -28 5 -3 1 2 6 10 11 9 6 10 10 3 10 -16 0 -26 -17 -13 -25 5 -3 10 -11
10 -16 0 -6 -12 -1 -27 11 -18 14 -28 32 -29 51 -1 21 2 26 10 20 7 -6 17 -6
26 -1z m120 -36 c0 5 6 3 14 -4 9 -7 13 -24 11 -43 -5 -38 3 -51 21 -36 14 12
33 5 21 -7 -10 -11 -58 -13 -51 -3 3 5 2 9 -3 8 -20 -3 -27 2 -13 11 13 9 13
10 0 10 -13 0 -13 1 0 10 13 9 13 11 0 21 -12 9 -11 10 5 4 14 -4 17 -3 9 5
-6 6 -19 8 -28 4 -14 -5 -15 -9 -5 -15 8 -4 10 -11 6 -16 -5 -4 -12 -1 -17 7
-5 8 -12 11 -17 7 -4 -5 -1 -12 7 -17 8 -6 11 -10 5 -10 -5 0 -16 4 -24 9 -10
7 -8 12 10 25 13 9 25 21 25 26 3 23 5 24 14 10 5 -8 10 -11 10 -6z m54 -8
c-1 -9 2 -16 8 -16 5 0 6 -5 2 -11 -4 -8 -13 -4 -25 12 -18 24 -16 43 4 36 7
-2 11 -12 11 -21z m51 4 c-3 -5 0 -11 7 -11 7 -1 18 -2 23 -4 6 -1 15 -3 21
-3 6 -1 11 -9 11 -17 0 -9 -5 -14 -11 -12 -6 3 -9 11 -8 18 2 8 0 10 -5 6 -4
-5 -8 -14 -8 -19 0 -6 -6 -13 -13 -16 -6 -2 -10 2 -9 10 2 7 2 10 0 6 -3 -4
-4 -10 -3 -14 1 -4 -4 -11 -12 -16 -9 -6 -6 -7 9 -3 12 3 24 1 28 -5 4 -6 3
-10 -2 -9 -4 1 -11 0 -15 -1 -13 -4 -27 -7 -38 -9 -5 0 -10 -7 -10 -14 0 -8
-11 -19 -24 -25 -20 -9 -24 -17 -21 -41 4 -31 -12 -45 -40 -35 -8 4 -15 1 -15
-6 0 -10 -3 -10 -15 0 -8 7 -12 17 -9 22 4 6 10 5 15 -3 7 -11 9 -11 9 -1 0 9
5 10 19 2 11 -5 22 -6 25 -2 3 5 -1 9 -9 10 -8 1 -22 3 -30 4 -17 2 -17 1 -9
22 3 9 10 16 16 16 5 0 7 -4 4 -9 -3 -5 1 -11 9 -15 8 -3 17 0 21 6 4 6 3 8
-3 5 -6 -4 -14 0 -17 8 -4 11 0 15 11 13 9 -2 17 5 19 16 2 14 0 16 -9 7 -13
-13 -31 -15 -23 -2 3 4 -3 16 -14 26 -11 10 -20 15 -20 10 0 -4 -7 -2 -15 5
-14 12 -17 8 -14 -16 1 -8 -23 -24 -36 -24 -5 0 -3 5 5 10 8 5 11 10 7 10 -4
0 -3 8 2 18 8 16 6 18 -19 16 -35 -2 -52 -12 -44 -25 3 -6 -2 -9 -12 -7 -12 2
-18 -2 -16 -10 1 -9 -2 -11 -10 -6 -7 4 -4 -3 7 -16 17 -20 17 -22 3 -17 -10
3 -20 1 -24 -5 -4 -7 -3 -8 5 -4 7 5 10 2 9 -6 -2 -7 3 -12 11 -10 9 2 11 -3
7 -13 -3 -9 -2 -13 4 -10 6 3 10 1 10 -4 0 -17 -21 -13 -35 6 -9 13 -14 13
-20 3 -5 -9 -4 -11 3 -6 7 4 12 2 12 -3 0 -6 -5 -11 -11 -11 -5 0 -7 -5 -3
-12 4 -7 3 -8 -4 -4 -7 4 -12 2 -12 -4 0 -7 6 -10 14 -7 8 3 17 -1 20 -9 6
-17 1 -18 -24 -4 -15 8 -18 7 -14 -3 6 -18 -21 -42 -31 -27 -3 5 -1 10 5 10 6
0 9 4 5 9 -3 5 -1 12 5 16 6 4 8 11 5 16 -4 5 -1 9 5 9 6 0 9 4 5 9 -3 5 -1
12 5 16 6 4 7 11 4 17 -4 7 -2 8 4 4 6 -4 11 1 10 11 0 10 3 29 7 43 3 14 7
32 9 40 2 8 14 15 27 15 13 0 24 5 24 12 0 20 12 24 25 8 16 -19 30 -19 30 0
0 12 5 10 21 -6 13 -13 27 -18 41 -13 11 3 18 2 15 -3 -15 -23 35 -49 69 -36
20 8 57 80 44 88 -13 8 -13 25 1 25 5 0 7 -4 4 -10z m-213 -84 c6 4 6 -2 -1
-14 -11 -20 2 -42 16 -28 4 3 15 -2 25 -11 17 -15 20 -15 28 -3 5 8 7 24 4 34
-5 16 -4 17 8 5 16 -14 20 -39 7 -39 -5 0 -16 -14 -24 -30 -15 -28 -35 -33
-35 -9 0 6 4 8 9 4 5 -3 13 0 17 6 5 8 3 9 -6 4 -9 -5 -11 -4 -6 3 4 7 2 12
-3 12 -20 0 -26 2 -38 12 -7 5 -17 7 -24 3 -8 -6 -8 -1 1 15 11 20 10 21 -9
10 -12 -6 -21 -13 -21 -16 0 -3 5 -2 12 2 7 4 8 3 4 -5 -10 -16 -29 -9 -32 11
-1 9 5 15 15 14 9 0 15 5 13 12 -1 8 2 11 8 7 5 -3 10 0 11 7 0 10 2 10 6 0 2
-6 9 -9 15 -6z m60 -16 c3 -25 2 -30 -7 -30 -5 0 -11 9 -11 20 -1 20 15 29 18
10z m157 -27 c-8 -9 -16 -10 -22 -4 -13 13 0 31 19 24 11 -4 12 -8 3 -20z
m-211 -33 c4 -13 3 -13 -10 -2 -11 9 -18 10 -23 2 -3 -6 -11 -7 -17 -4 -7 4
-8 2 -4 -5 4 -6 12 -9 17 -6 12 8 12 -2 -1 -25 -7 -13 -7 -21 0 -25 5 -3 10
-11 10 -17 0 -6 -7 -5 -17 3 -11 10 -14 10 -9 2 4 -7 2 -13 -3 -13 -14 0 -14
6 -1 31 8 13 7 25 -1 40 -8 16 -8 23 1 29 19 12 53 6 58 -10z m17 -9 c-3 -10
1 -24 10 -31 8 -7 12 -16 9 -22 -3 -5 0 -15 6 -23 10 -12 10 -18 0 -30 -7 -8
-17 -15 -23 -15 -5 0 -2 9 8 20 15 17 16 20 3 15 -11 -5 -16 -1 -15 12 2 13
-5 18 -23 18 -17 0 -24 5 -21 15 2 8 4 23 5 32 0 13 4 14 13 6 9 -7 14 -6 19
6 9 22 17 20 9 -3z m-89 -69 c-1 -21 39 -25 55 -6 6 8 15 14 19 14 11 0 9 -49
-1 -56 -5 -3 -9 -11 -9 -17 0 -9 3 -8 8 1 7 9 13 7 28 -9 19 -22 19 -22 -1
-12 -11 5 -29 8 -40 6 -11 -2 -30 -4 -42 -6 -12 -2 -31 -11 -41 -20 -10 -9
-22 -14 -25 -10 -9 9 -9 23 1 22 18 -3 35 2 29 8 -4 3 3 11 16 18 15 8 24 8
30 1 9 -14 28 14 20 28 -4 5 1 7 11 3 9 -4 15 -3 11 2 -3 6 -14 9 -25 8 -14
-1 -16 -4 -8 -14 15 -19 -2 -16 -26 5 -16 13 -18 13 -8 1 6 -9 9 -19 5 -22
-13 -13 -19 -7 -20 21 0 15 -4 35 -8 45 -5 13 -3 16 8 12 8 -4 14 -14 13 -23z
m-28 -66 c-15 -29 -20 -34 -18 -16 5 36 0 44 -15 24 -8 -10 -14 -23 -15 -29 0
-5 4 -4 9 4 6 10 9 5 8 -15 -2 -32 -25 -66 -39 -58 -5 3 -15 1 -22 -5 -10 -9
-15 -8 -19 1 -7 21 -7 28 1 29 4 0 13 5 20 11 8 7 12 7 12 0 0 -6 -8 -16 -17
-21 -10 -6 -13 -11 -7 -11 6 0 17 7 24 15 6 8 15 14 18 13 21 -2 23 4 7 22
-10 11 -15 20 -10 20 4 0 1 8 -6 17 -12 15 -12 16 3 11 9 -4 23 1 34 13 24 26
49 7 32 -25z m-71 -13 c-4 -3 1 -15 10 -26 17 -19 17 -20 -2 -10 -11 6 -26 8
-33 6 -11 -4 -11 -2 0 16 7 12 17 21 22 21 5 0 6 -3 3 -7z"/>
<path d="M4501 2803 c-1 -17 19 -27 31 -15 6 6 6 12 -3 17 -8 5 -10 4 -5 -3 4
-7 3 -12 -3 -12 -5 0 -12 6 -14 13 -4 9 -6 9 -6 0z"/>
<path d="M4510 2670 c0 -5 5 -10 11 -10 5 0 7 5 4 10 -3 6 -8 10 -11 10 -2 0
-4 -4 -4 -10z"/>
<path d="M4722 2557 c-9 -11 -8 -13 8 -12 23 2 53 25 32 25 -7 0 -12 -6 -12
-12 0 -10 -2 -10 -9 0 -6 11 -10 10 -19 -1z"/>
<path d="M4697 2424 c3 -10 0 -12 -10 -8 -19 7 -28 -8 -16 -26 8 -13 11 -13
23 2 7 10 16 15 20 11 4 -4 4 1 0 12 -7 18 -6 19 12 5 15 -11 16 -11 7 0 -17
19 -43 22 -36 4z m-7 -24 c0 -5 -2 -10 -4 -10 -3 0 -8 5 -11 10 -3 6 -1 10 4
10 6 0 11 -4 11 -10z"/>
<path d="M4667 2357 c-7 -19 8 -43 17 -28 4 6 2 11 -5 11 -8 0 -8 4 1 15 7 9
8 15 2 15 -5 0 -12 -6 -15 -13z"/>
<path d="M4496 2063 c22 -16 34 -17 34 -2 0 5 -4 7 -10 4 -5 -3 -10 -2 -10 3
0 5 -7 9 -16 9 -14 0 -14 -2 2 -14z"/>
<path d="M4510 2030 c0 -5 5 -10 11 -10 5 0 7 5 4 10 -3 6 -8 10 -11 10 -2 0
-4 -4 -4 -10z"/>
<path d="M4589 2173 c-13 -16 -12 -17 4 -4 16 13 21 21 13 21 -2 0 -10 -8 -17
-17z"/>
<path d="M4518 2157 c-8 -16 -7 -17 9 -9 10 5 23 8 29 5 6 -2 11 2 11 10 0 19
-37 15 -49 -6z"/>
<path d="M4555 1871 c-3 -5 -2 -12 3 -15 5 -3 9 1 9 9 0 17 -3 19 -12 6z"/>
<path d="M4540 1846 c0 -2 8 -10 18 -17 15 -13 16 -12 3 4 -13 16 -21 21 -21
13z"/>
<path d="M2479 851 c11 -7 11 -9 0 -14 -10 -4 -9 -6 3 -6 23 -1 32 15 12 23
-23 9 -31 7 -15 -3z"/>
<path d="M2506 638 c3 -4 9 -8 15 -8 5 0 9 4 9 8 0 5 -7 9 -15 9 -8 0 -12 -4
-9 -9z"/>
<path d="M4490 3045 c-7 -9 -11 -17 -9 -20 3 -2 10 5 17 15 14 24 10 26 -8 5z"/>
<path d="M4555 3050 c-4 -6 -10 -8 -15 -5 -4 3 -13 -2 -19 -9 -9 -10 -9 -16
-1 -21 6 -4 10 -3 9 2 -3 18 2 27 9 16 6 -9 11 -7 20 7 7 11 10 20 8 20 -3 0
-8 -5 -11 -10z"/>
<path d="M4655 3041 c-3 -5 -2 -12 3 -15 5 -3 9 1 9 9 0 17 -3 19 -12 6z"/>
<path d="M4695 3023 c3 -3 -2 -14 -11 -24 -10 -11 -12 -19 -4 -24 6 -3 10 -3
9 2 -3 20 2 27 11 13 8 -12 9 -10 7 7 -2 12 -6 25 -10 28 -4 3 -5 2 -2 -2z"/>
<path d="M4485 3000 c-3 -6 1 -7 9 -4 18 7 21 14 7 14 -6 0 -13 -4 -16 -10z"/>
<path d="M4541 3000 c-1 -9 5 -22 12 -29 10 -11 8 -12 -10 -6 -13 3 -23 2 -23
-3 0 -5 9 -9 20 -8 22 1 24 5 10 38 -5 14 -9 17 -9 8z"/>
<path d="M4566 2997 c3 -10 9 -15 12 -12 3 3 0 11 -7 18 -10 9 -11 8 -5 -6z"/>
<path d="M4596 2993 c-6 -14 -5 -15 5 -6 7 7 10 15 7 18 -3 3 -9 -2 -12 -12z"/>
<path d="M4508 2983 c7 -3 16 -2 19 1 4 3 -2 6 -13 5 -11 0 -14 -3 -6 -6z"/>
<path d="M4732 2961 c-11 -7 -11 -9 0 -14 9 -3 15 1 15 9 0 8 -1 14 -1 14 -1
0 -7 -4 -14 -9z"/>
<path d="M4753 2925 c-3 -9 -3 -18 -1 -21 3 -3 8 4 11 16 6 23 -1 27 -10 5z"/>
<path d="M4790 2930 c-8 -5 -10 -10 -5 -10 6 0 17 5 25 10 8 5 11 10 5 10 -5
0 -17 -5 -25 -10z"/>
<path d="M4833 2925 c0 -8 3 -13 5 -10 3 3 10 0 17 -5 8 -7 12 -5 12 5 0 8 -3
13 -5 10 -3 -3 -10 0 -17 5 -8 7 -12 5 -12 -5z"/>
<path d="M4807 2904 c7 -3 9 -13 6 -22 -4 -14 -3 -14 5 -2 12 16 7 30 -11 29
-9 0 -9 -2 0 -5z"/>
<path d="M4834 2878 c-4 -5 -3 -12 0 -15 3 -4 6 -1 6 6 0 7 4 10 9 6 5 -3 12
-2 15 3 3 5 -2 9 -10 9 -8 0 -17 -4 -20 -9z"/>
<path d="M4780 2858 c0 -6 3 -8 6 -5 4 3 16 2 28 -4 20 -10 20 -10 2 5 -24 19
-36 20 -36 4z"/>
<path d="M4910 2860 c0 -5 5 -10 11 -10 5 0 7 5 4 10 -3 6 -8 10 -11 10 -2 0
-4 -4 -4 -10z"/>
<path d="M4830 2830 c-8 -5 -12 -11 -10 -14 3 -2 14 2 24 10 22 15 10 19 -14
4z"/>
<path d="M4870 2823 c0 -5 5 -15 10 -23 7 -12 9 -10 7 8 -1 19 -17 33 -17 15z"/>
<path d="M4933 2811 c0 -11 5 -18 9 -15 4 3 5 11 1 19 -7 21 -12 19 -10 -4z"/>
<path d="M4840 2799 c0 -5 5 -7 10 -4 6 3 10 8 10 11 0 2 -4 4 -10 4 -5 0 -10
-5 -10 -11z"/>
<path d="M4820 2791 c0 -6 4 -13 10 -16 6 -3 7 1 4 9 -7 18 -14 21 -14 7z"/>
<path d="M4890 2770 c-9 -6 -10 -10 -3 -10 6 0 15 5 18 10 8 12 4 12 -15 0z"/>
<path d="M4853 2723 c9 -8 57 -13 57 -6 0 5 -14 9 -31 9 -16 1 -28 0 -26 -3z"/>
<path d="M4842 2704 c10 -10 20 -15 24 -12 3 4 -5 12 -18 18 -22 12 -22 12 -6
-6z"/>
<path d="M4860 2676 c0 -2 11 -6 25 -8 13 -3 22 -1 19 3 -5 9 -44 13 -44 5z"/>
<path d="M4873 2610 c1 -11 5 -20 9 -20 3 0 6 9 5 20 -1 11 -5 20 -9 20 -3 0
-6 -9 -5 -20z"/>
<path d="M4916 2593 c-6 -14 -5 -15 5 -6 7 7 10 15 7 18 -3 3 -9 -2 -12 -12z"/>
<path d="M4956 2533 c-6 -14 -5 -15 5 -6 7 7 10 15 7 18 -3 3 -9 -2 -12 -12z"/>
<path d="M4890 2536 c0 -2 8 -10 18 -17 15 -13 16 -12 3 4 -13 16 -21 21 -21
13z"/>
<path d="M4838 2523 c7 -3 16 -2 19 1 4 3 -2 6 -13 5 -11 0 -14 -3 -6 -6z"/>
<path d="M4856 2483 c-4 -9 -2 -21 4 -27 8 -8 9 -6 4 8 -5 13 -4 17 4 12 8 -5
10 -2 6 8 -8 20 -10 20 -18 -1z"/>
<path d="M4893 2485 c0 -8 4 -12 9 -9 5 3 6 10 3 15 -9 13 -12 11 -12 -6z"/>
<path d="M4889 2443 c-13 -16 -12 -17 4 -4 9 7 17 15 17 17 0 8 -8 3 -21 -13z"/>
<path d="M4876 2407 c3 -10 9 -15 12 -12 3 3 0 11 -7 18 -10 9 -11 8 -5 -6z"/>
<path d="M4820 2400 c-9 -6 -10 -10 -3 -10 6 0 15 5 18 10 8 12 4 12 -15 0z"/>
<path d="M4831 2370 c0 -8 4 -22 9 -30 12 -18 12 -2 0 25 -6 13 -9 15 -9 5z"/>
<path d="M4803 2343 c-7 -3 -13 -9 -13 -15 0 -6 7 -4 17 3 15 12 16 12 10 -4
-5 -12 -3 -16 5 -11 8 5 9 2 5 -10 -4 -10 -3 -15 3 -11 13 8 13 18 -2 37 -7 9
-19 14 -25 11z"/>
<path d="M4816 2233 c-6 -14 -5 -15 5 -6 7 7 10 15 7 18 -3 3 -9 -2 -12 -12z"/>
<path d="M4834 2196 c1 -8 5 -18 8 -22 4 -3 5 1 4 10 -1 8 -5 18 -8 22 -4 3
-5 -1 -4 -10z"/>
<path d="M4746 2174 c-3 -8 -2 -12 4 -9 6 3 10 -1 10 -9 0 -8 4 -17 10 -21 5
-3 5 7 -1 25 -12 34 -15 36 -23 14z"/>
<path d="M4793 2125 c0 -8 4 -12 9 -9 5 3 6 10 3 15 -9 13 -12 11 -12 -6z"/>
<path d="M4751 2091 c-8 -5 -9 -11 -3 -15 5 -3 12 1 16 9 6 17 6 18 -13 6z"/>
<path d="M4776 2073 c-6 -14 -5 -15 5 -6 7 7 10 15 7 18 -3 3 -9 -2 -12 -12z"/>
<path d="M4740 1986 c0 -2 8 -10 18 -17 15 -13 16 -12 3 4 -13 16 -21 21 -21
13z"/>
<path d="M4680 1921 c0 -11 4 -22 9 -25 4 -3 6 6 3 19 -5 30 -12 33 -12 6z"/>
<path d="M4710 1937 c0 -2 6 -10 14 -16 11 -9 16 -9 22 1 4 7 4 10 -1 6 -4 -4
-14 -3 -22 3 -7 6 -13 9 -13 6z"/>
<path d="M4664 1846 c-16 -12 -17 -17 -6 -28 11 -11 12 -10 6 7 l-7 20 24 -20
c17 -14 20 -15 10 -3 -7 9 -10 22 -6 28 9 14 2 13 -21 -4z"/>
<path d="M4620 1810 c-6 -11 -16 -19 -22 -17 -6 1 -13 -5 -15 -13 -3 -10 -2
-11 4 -4 4 6 16 10 26 8 11 -1 16 0 13 3 -3 3 -1 14 5 24 5 11 7 19 5 19 -3 0
-10 -9 -16 -20z"/>
<path d="M4673 1769 c-2 -23 3 -25 10 -4 4 8 3 16 -1 19 -4 3 -9 -4 -9 -15z"/>
<path d="M4600 1755 c0 -8 2 -15 4 -15 2 0 6 7 10 15 3 8 1 15 -4 15 -6 0 -10
-7 -10 -15z"/>
<path d="M4630 1758 c0 -9 7 -19 16 -22 15 -6 15 -4 3 11 -7 10 -15 20 -16 22
-2 2 -3 -3 -3 -11z"/>
<path d="M4610 1720 c0 -5 5 -10 10 -10 6 0 10 5 10 10 0 6 -4 10 -10 10 -5 0
-10 -4 -10 -10z"/>
<path d="M4600 1695 c0 -5 5 -17 10 -25 5 -8 10 -10 10 -5 0 6 -5 17 -10 25
-5 8 -10 11 -10 5z"/>
<path d="M4639 1653 c-12 -16 -12 -17 2 -6 9 7 20 9 24 5 5 -4 5 -1 1 6 -9 16
-11 15 -27 -5z"/>
<path d="M4596 1638 c3 -5 10 -6 15 -3 13 9 11 12 -6 12 -8 0 -12 -4 -9 -9z"/>
<path d="M4514 1615 c3 -14 0 -25 -5 -25 -5 0 -9 -5 -9 -11 0 -8 5 -8 15 1 8
7 12 17 8 23 -4 6 0 8 10 4 22 -8 21 -5 -3 16 -20 17 -20 16 -16 -8z"/>
<path d="M4550 1630 c0 -5 5 -10 10 -10 6 0 10 5 10 10 0 6 -4 10 -10 10 -5 0
-10 -4 -10 -10z"/>
<path d="M4667 1599 c7 -7 15 -10 18 -7 3 3 -2 9 -12 12 -14 6 -15 5 -6 -5z"/>
<path d="M4529 1573 c-13 -15 -12 -15 6 -6 11 6 27 13 35 16 10 4 8 6 -6 6
-12 1 -28 -6 -35 -16z"/>
<path d="M4596 1578 c3 -5 10 -6 15 -3 13 9 11 12 -6 12 -8 0 -12 -4 -9 -9z"/>
<path d="M4583 1559 c9 -6 14 -15 11 -21 -4 -7 -2 -8 5 -4 14 9 -3 36 -23 36
-6 0 -3 -5 7 -11z"/>
<path d="M4541 1557 c2 -1 13 -9 24 -17 19 -14 19 -14 6 3 -7 9 -18 17 -24 17
-6 0 -8 -1 -6 -3z"/>
<path d="M4517 1535 c-8 -20 9 -28 30 -15 16 9 15 10 -4 5 -18 -5 -22 -3 -17
9 3 9 4 16 1 16 -3 0 -7 -7 -10 -15z"/>
<path d="M4610 1520 c0 -5 5 -10 11 -10 5 0 7 5 4 10 -3 6 -8 10 -11 10 -2 0
-4 -4 -4 -10z"/>
<path d="M4550 1486 c0 -2 7 -7 16 -10 8 -3 12 -2 9 4 -6 10 -25 14 -25 6z"/>
<path d="M4539 1433 c-12 -16 -12 -17 2 -6 9 7 20 9 24 5 5 -4 5 -1 1 6 -9 16
-11 15 -27 -5z"/>
<path d="M4600 1420 c-9 -6 -10 -10 -3 -10 6 0 15 5 18 10 8 12 4 12 -15 0z"/>
<path d="M4516 1395 c-3 -8 -1 -15 4 -15 6 0 10 7 10 15 0 8 -2 15 -4 15 -2 0
-6 -7 -10 -15z"/>
<path d="M2930 1020 c0 -5 5 -10 11 -10 5 0 7 5 4 10 -3 6 -8 10 -11 10 -2 0
-4 -4 -4 -10z"/>
<path d="M2911 1010 c0 -8 4 -22 9 -30 12 -18 12 -2 0 25 -6 13 -9 15 -9 5z"/>
<path d="M2950 1000 c-9 -6 -10 -10 -3 -10 6 0 15 5 18 10 8 12 4 12 -15 0z"/>
<path d="M2963 975 c-3 -9 -3 -18 -1 -21 3 -3 8 4 11 16 6 23 -1 27 -10 5z"/>
<path d="M2896 964 c-8 -20 -8 -24 2 -24 4 0 8 9 9 20 2 24 -3 26 -11 4z"/>
<path d="M2996 962 c-3 -5 1 -9 9 -9 8 0 12 4 9 9 -3 4 -7 8 -9 8 -2 0 -6 -4
-9 -8z"/>
<path d="M2955 930 c-4 -6 -11 -8 -16 -5 -5 4 -9 1 -9 -4 0 -16 16 -13 30 4 7
8 10 15 7 15 -3 0 -9 -5 -12 -10z"/>
<path d="M2993 925 c0 -8 4 -12 9 -9 5 3 6 10 3 15 -9 13 -12 11 -12 -6z"/>
<path d="M2921 884 c0 -11 3 -14 6 -6 3 7 2 16 -1 19 -3 4 -6 -2 -5 -13z"/>
<path d="M2880 882 c0 -5 7 -15 15 -22 8 -7 15 -9 15 -6 0 4 -7 14 -15 22 -8
9 -15 11 -15 6z"/>
<path d="M2917 829 c7 -7 15 -10 18 -7 3 3 -2 9 -12 12 -14 6 -15 5 -6 -5z"/>
<path d="M2797 776 c-18 -14 -24 -32 -7 -21 6 3 13 -1 16 -9 3 -9 11 -16 17
-16 5 0 2 9 -7 19 -13 15 -14 20 -4 24 7 2 11 7 8 10 -3 3 -13 0 -23 -7z"/>
<path d="M2930 779 c0 -5 5 -7 10 -4 6 3 10 8 10 11 0 2 -4 4 -10 4 -5 0 -10
-5 -10 -11z"/>
<path d="M2893 763 c1 -17 4 -19 14 -11 15 12 18 22 4 14 -5 -4 -11 0 -14 6
-3 7 -4 3 -4 -9z"/>
<path d="M2850 730 c-9 -6 -10 -10 -3 -10 6 0 15 5 18 10 8 12 4 12 -15 0z"/>
<path d="M2880 720 c-9 -6 -10 -10 -3 -10 6 0 15 5 18 10 8 12 4 12 -15 0z"/>
<path d="M2795 700 c-4 -11 -11 -17 -17 -14 -7 5 -8 2 -3 -6 6 -10 11 -10 20
3 7 9 15 14 19 10 4 -4 4 0 0 10 -8 22 -11 21 -19 -3z"/>
<path d="M2835 700 c-3 -5 -1 -10 4 -10 6 0 11 5 11 10 0 6 -2 10 -4 10 -3 0
-8 -4 -11 -10z"/>
<path d="M2750 660 c0 -5 5 -10 10 -10 6 0 10 5 10 10 0 6 -4 10 -10 10 -5 0
-10 -4 -10 -10z"/>
<path d="M2720 646 c0 -2 7 -7 16 -10 8 -3 12 -2 9 4 -6 10 -25 14 -25 6z"/>
<path d="M2710 620 c0 -5 5 -10 10 -10 6 0 10 5 10 10 0 6 -4 10 -10 10 -5 0
-10 -4 -10 -10z"/>
<path d="M2736 602 c-3 -5 1 -9 9 -9 8 0 12 4 9 9 -3 4 -7 8 -9 8 -2 0 -6 -4
-9 -8z"/>
<path d="M2626 564 c-11 -8 -16 -14 -10 -14 13 0 39 18 34 24 -3 2 -14 -2 -24
-10z"/>
<path d="M2733 565 c0 -8 4 -12 9 -9 5 3 6 10 3 15 -9 13 -12 11 -12 -6z"/>
<path d="M2630 530 c-6 -11 -8 -20 -6 -20 3 0 10 9 16 20 6 11 8 20 6 20 -3 0
-10 -9 -16 -20z"/>
<path d="M2590 501 c0 -6 4 -12 8 -15 5 -3 9 1 9 9 0 8 -4 15 -9 15 -4 0 -8
-4 -8 -9z"/>
<path d="M2640 500 c-9 -6 -10 -10 -3 -10 6 0 15 5 18 10 8 12 4 12 -15 0z"/>
<path d="M2517 481 c-4 -17 -3 -21 5 -13 5 5 8 16 6 23 -3 8 -7 3 -11 -10z"/>
<path d="M2536 461 c-3 -5 1 -14 9 -21 8 -7 12 -17 8 -23 -4 -6 -1 -7 6 -3 9
6 9 12 -3 25 -9 10 -13 21 -9 24 3 4 4 7 0 7 -3 0 -8 -4 -11 -9z"/>
<path d="M2610 459 c0 -5 5 -7 10 -4 6 3 10 8 10 11 0 2 -4 4 -10 4 -5 0 -10
-5 -10 -11z"/>
<path d="M2380 435 c-7 -9 -10 -18 -7 -22 4 -3 9 2 13 11 3 9 10 13 15 10 5
-3 9 0 9 5 0 16 -16 13 -30 -4z"/>
<path d="M2420 446 c0 -2 7 -6 15 -10 8 -3 15 -1 15 4 0 6 -7 10 -15 10 -8 0
-15 -2 -15 -4z"/>
<path d="M2470 430 c-11 -7 -11 -10 -2 -10 8 0 10 -5 6 -12 -4 -7 -3 -9 1 -5
7 6 17 37 12 37 -1 0 -9 -5 -17 -10z"/>
<path d="M2414 415 c-4 -8 -9 -13 -13 -11 -4 3 -8 -5 -8 -17 -2 -19 0 -18 16
6 10 15 21 24 26 20 4 -5 5 -2 1 5 -9 16 -15 15 -22 -3z"/>
<path d="M2352 400 c0 -14 2 -19 5 -12 2 6 2 18 0 25 -3 6 -5 1 -5 -13z"/>
<path d="M2256 385 c3 -8 11 -12 17 -8 6 4 8 0 4 -10 -3 -10 -2 -17 3 -17 18
0 10 29 -10 40 -16 9 -18 8 -14 -5z"/>
<path d="M2235 370 c-3 -5 -1 -10 4 -10 6 0 11 5 11 10 0 6 -2 10 -4 10 -3 0
-8 -4 -11 -10z"/>
<path d="M2252 345 c4 -4 0 -13 -8 -20 -15 -11 -15 -12 -1 -12 20 0 30 24 14
33 -7 4 -9 4 -5 -1z"/>
<path d="M2296 342 c-2 -4 -1 -14 4 -22 7 -11 9 -9 7 8 -1 24 -3 26 -11 14z"/>
<path d="M2348 343 c7 -3 16 -2 19 1 4 3 -2 6 -13 5 -11 0 -14 -3 -6 -6z"/>
<path d="M2156 302 c-3 -5 1 -9 9 -9 8 0 12 4 9 9 -3 4 -7 8 -9 8 -2 0 -6 -4
-9 -8z"/>
<path d="M2196 302 c-3 -5 1 -9 9 -9 8 0 12 4 9 9 -3 4 -7 8 -9 8 -2 0 -6 -4
-9 -8z"/>
<path d="M2194 262 c4 -3 14 -7 22 -8 9 -1 13 0 10 4 -4 3 -14 7 -22 8 -9 1
-13 0 -10 -4z"/>
<path d="M2055 220 c3 -5 8 -10 11 -10 2 0 4 5 4 10 0 6 -5 10 -11 10 -5 0 -7
-4 -4 -10z"/>
</g>
</svg>
